<?xml version="1.0" encoding="utf-8"?>
<!-- Generator: Adobe Illustrator 16.0.0, SVG Export Plug-In . SVG Version: 6.00 Build 0)  -->
<!DOCTYPE svg PUBLIC "-//W3C//DTD SVG 1.1//EN" "http://www.w3.org/Graphics/SVG/1.1/DTD/svg11.dtd">
<svg version="1.1" id="Layer_1" xmlns="http://www.w3.org/2000/svg" xmlns:xlink="http://www.w3.org/1999/xlink" x="0px" y="0px"
	 width="511.44px" height="83.243px" viewBox="0 0 511.44 83.243" enable-background="new 0 0 511.44 83.243" xml:space="preserve">
<g>
	<g>
		<path fill="#FFFFFF" d="M8.229,38.471H0.396L0,37.06L17.258,17.8h0.807v12.745h13.039c0.271,1.136,0.406,2.407,0.406,3.809
			c0,0.738-0.033,1.443-0.102,2.106c-0.063,0.672-0.17,1.343-0.305,2.011H18.064v23.483c0,2.82,0.115,5.063,0.354,6.734
			c0.23,1.674,0.632,2.959,1.195,3.867c0.57,0.91,1.34,1.502,2.316,1.805c0.967,0.303,2.189,0.455,3.662,0.455
			c1.145,0,2.203-0.086,3.21-0.254c1.004-0.172,1.907-0.352,2.708-0.545c0.465,1.334,0.75,2.701,0.855,4.1
			c0.1,1.418,0.145,2.646,0.145,3.721c-1.335,0.338-2.736,0.584-4.215,0.752c-1.469,0.164-3.043,0.246-4.71,0.246
			c-4.823,0-8.581-1.162-11.294-3.504c-2.709-2.348-4.062-6.227-4.062-11.648V38.471z"/>
		<path fill="#FFFFFF" d="M40.242,30.545c0.735-0.137,1.439-0.233,2.107-0.296c0.674-0.073,1.369-0.107,2.105-0.107
			c0.735,0,1.471,0.034,2.211,0.107c0.729,0.063,1.4,0.159,2.002,0.296c0.2,1,0.4,2.319,0.609,3.961
			c0.199,1.64,0.292,3.032,0.292,4.161c1.406-2.266,3.266-4.248,5.575-5.915c2.313-1.672,5.27-2.503,8.883-2.503
			c0.54,0,1.088,0.01,1.654,0.048c0.57,0.029,1.053,0.079,1.461,0.143c0.129,0.603,0.227,1.241,0.295,1.908
			c0.068,0.665,0.105,1.381,0.105,2.11c0,0.799-0.055,1.639-0.152,2.51c-0.104,0.865-0.219,1.699-0.349,2.503
			c-0.542-0.132-1.097-0.191-1.658-0.191c-0.575,0-1.026,0-1.356,0c-1.806,0-3.529,0.242-5.172,0.744
			c-1.638,0.506-3.105,1.395-4.406,2.662c-1.313,1.271-2.35,3.011-3.117,5.217c-0.765,2.209-1.158,5.059-1.158,8.538v25.6
			c-0.731,0.135-1.554,0.227-2.467,0.301c-0.889,0.064-1.707,0.1-2.44,0.1c-0.735,0-1.561-0.035-2.467-0.1
			c-0.905-0.074-1.758-0.166-2.558-0.301V30.545z"/>
		<path fill="#FFFFFF" d="M101.766,48.111c0-3.955-1.004-6.693-3.014-8.238c-2.008-1.538-4.921-2.3-8.73-2.3
			c-2.342,0-4.533,0.177-6.582,0.544c-2.033,0.371-4.019,0.853-5.962,1.457c-1.276-2.203-1.907-4.848-1.907-7.925
			c2.272-0.737,4.781-1.307,7.527-1.709c2.742-0.399,5.377-0.602,7.922-0.602c6.697,0,11.779,1.529,15.262,4.565
			c3.482,3.042,5.223,7.915,5.223,14.603v32.237c-2.344,0.527-5.188,1.074-8.535,1.641c-3.348,0.574-6.756,0.859-10.239,0.859
			c-3.274,0-6.238-0.297-8.879-0.902c-2.645-0.605-4.887-1.578-6.722-2.908c-1.848-1.348-3.268-3.047-4.27-5.121
			c-1.004-2.07-1.502-4.584-1.502-7.533c0-2.879,0.581-5.402,1.752-7.578c1.169-2.182,2.761-3.979,4.773-5.424
			c1.998-1.441,4.314-2.511,6.92-3.216c2.605-0.693,5.354-1.052,8.229-1.052c2.14,0,3.892,0.048,5.264,0.153
			c1.374,0.1,2.526,0.219,3.47,0.357V48.111z M101.766,57.841c-1.004-0.129-2.277-0.266-3.808-0.396
			c-1.546-0.137-2.854-0.195-3.923-0.195c-4.15,0-7.31,0.758-9.479,2.301c-2.182,1.541-3.266,3.883-3.266,7.037
			c0,2,0.362,3.57,1.105,4.703c0.736,1.145,1.65,2.016,2.762,2.621c1.098,0.598,2.316,0.965,3.658,1.096
			c1.34,0.141,2.612,0.197,3.818,0.197c1.531,0,3.119-0.082,4.762-0.24c1.633-0.176,3.093-0.412,4.369-0.754V57.841z"/>
		<path fill="#FFFFFF" d="M158.766,73.104c0.545,0.941,1.01,2.1,1.408,3.51c0.41,1.412,0.641,2.844,0.709,4.313
			c-3.951,1.545-8.469,2.316-13.555,2.316c-8.559,0-15.017-2.428-19.369-7.275c-4.35-4.846-6.522-11.398-6.522-19.631
			c0-3.813,0.534-7.357,1.608-10.64c1.076-3.276,2.654-6.123,4.766-8.535c2.111-2.407,4.737-4.316,7.875-5.719
			c3.143-1.403,6.795-2.105,10.943-2.105c2.807,0,5.283,0.16,7.426,0.501c2.142,0.336,4.184,0.872,6.119,1.604
			c0,1.14-0.153,2.46-0.449,3.968c-0.304,1.51-0.724,2.823-1.252,3.962c-3.283-1.14-7.023-1.705-11.242-1.705
			c-5.158,0-9.002,1.705-11.545,5.12c-2.539,3.41-3.818,7.931-3.818,13.549c0,6.432,1.451,11.145,4.324,14.111
			c2.866,2.969,6.824,4.457,11.835,4.457c2.015,0,3.87-0.129,5.573-0.396C155.309,74.249,157.034,73.769,158.766,73.104z"/>
		<path fill="#FFFFFF" d="M176.334,58.749c0.137,5.621,1.594,9.74,4.373,12.354c2.77,2.604,6.875,3.904,12.297,3.904
			c4.738,0,9.259-0.834,13.545-2.498c0.527,0.994,0.974,2.221,1.302,3.66c0.335,1.436,0.539,2.854,0.598,4.264
			c-2.203,0.938-4.631,1.639-7.274,2.107c-2.643,0.469-5.573,0.703-8.777,0.703c-4.682,0-8.702-0.654-12.046-1.955
			c-3.345-1.311-6.11-3.148-8.279-5.518c-2.182-2.379-3.759-5.186-4.761-8.438c-1.012-3.254-1.51-6.809-1.51-10.701
			c0-3.813,0.476-7.368,1.453-10.685c0.969-3.311,2.453-6.191,4.47-8.632c2.003-2.437,4.521-4.375,7.577-5.819
			c3.042-1.441,6.637-2.158,10.783-2.158c3.542,0,6.658,0.602,9.336,1.809c2.668,1.201,4.913,2.858,6.729,4.963
			c1.799,2.11,3.167,4.622,4.112,7.535c0.936,2.908,1.402,6.064,1.402,9.48c0,0.937-0.035,1.927-0.104,2.966
			c-0.062,1.035-0.13,1.916-0.193,2.658H176.334z M201.828,51.316c0-1.873-0.245-3.664-0.756-5.37
			c-0.503-1.708-1.233-3.192-2.203-4.467c-0.974-1.26-2.207-2.292-3.712-3.059c-1.511-0.77-3.298-1.152-5.38-1.152
			c-4.072,0-7.202,1.237-9.379,3.708c-2.174,2.479-3.494,5.927-3.95,10.34H201.828z"/>
		<path fill="#FFFFFF" d="M222.707,30.545c0.735-0.137,1.439-0.233,2.104-0.296c0.674-0.073,1.375-0.107,2.11-0.107
			c0.734,0,1.472,0.034,2.214,0.107c0.733,0.063,1.397,0.159,2,0.296c0.201,1,0.402,2.319,0.604,3.961
			c0.205,1.64,0.301,3.032,0.301,4.161c1.405-2.266,3.256-4.248,5.566-5.915c2.311-1.672,5.273-2.503,8.889-2.503
			c0.535,0,1.084,0.01,1.652,0.048c0.563,0.029,1.056,0.079,1.459,0.143c0.129,0.603,0.232,1.241,0.301,1.908
			c0.066,0.665,0.104,1.381,0.104,2.11c0,0.799-0.056,1.639-0.155,2.51c-0.102,0.865-0.215,1.699-0.348,2.503
			c-0.543-0.132-1.092-0.191-1.661-0.191c-0.57,0-1.022,0-1.353,0c-1.807,0-3.529,0.242-5.166,0.744
			c-1.643,0.506-3.111,1.395-4.428,2.662c-1.297,1.271-2.338,3.011-3.106,5.217c-0.763,2.209-1.153,5.059-1.153,8.538v25.6
			c-0.735,0.135-1.557,0.227-2.463,0.301c-0.893,0.064-1.72,0.1-2.461,0.1c-0.729,0-1.557-0.035-2.451-0.1
			c-0.904-0.074-1.761-0.166-2.559-0.301V30.545z"/>
		<path fill="#FFFFFF" d="M256.018,72.7c1.818,0.74,3.803,1.326,5.982,1.764c2.175,0.432,4.328,0.646,6.465,0.646
			c1.549,0,3.014-0.16,4.422-0.5c1.4-0.336,2.625-0.842,3.652-1.506c1.043-0.67,1.89-1.492,2.522-2.461
			c0.64-0.973,0.947-2.057,0.947-3.262c0-1.33-0.255-2.441-0.753-3.316c-0.496-0.867-1.177-1.607-2.008-2.199
			c-0.836-0.607-1.803-1.127-2.91-1.564c-1.096-0.438-2.293-0.854-3.558-1.254l-3.515-1.307c-4.276-1.605-7.39-3.414-9.332-5.42
			c-1.949-2.005-2.914-4.716-2.914-8.135c0-4.537,1.625-8.157,4.875-10.834c3.246-2.674,8.009-4.014,14.295-4.014
			c2.605,0,5.168,0.251,7.676,0.752c2.518,0.501,4.705,1.088,6.582,1.76c-0.137,1.336-0.402,2.67-0.758,4.011
			c-0.367,1.342-0.83,2.577-1.349,3.712c-1.473-0.53-3.239-1.053-5.284-1.557c-2.032-0.494-4.227-0.749-6.563-0.749
			c-2.48,0-4.666,0.434-6.582,1.299c-1.9,0.878-2.85,2.409-2.85,4.621c0,1.14,0.225,2.112,0.697,2.908
			c0.465,0.808,1.102,1.49,1.905,2.063c0.8,0.57,1.722,1.051,2.761,1.451c1.038,0.41,2.156,0.805,3.367,1.207l4.418,1.505
			c1.603,0.535,3.115,1.175,4.563,1.908c1.429,0.74,2.674,1.66,3.715,2.76c1.021,1.102,1.869,2.445,2.506,4.016
			c0.623,1.572,0.955,3.463,0.955,5.676c0,2.475-0.498,4.734-1.502,6.785c-1.004,2.025-2.428,3.777-4.273,5.207
			c-1.843,1.441-4.06,2.559-6.664,3.367c-2.616,0.795-5.496,1.203-8.637,1.203c-3.209,0-6.024-0.217-8.428-0.654
			c-2.418-0.439-4.656-1.018-6.725-1.756c0.133-1.34,0.414-2.693,0.855-4.07C255.002,75.394,255.491,74.046,256.018,72.7z"/>
		<path fill="#FFFFFF" d="M321.456,83.243c-4.022,0-7.527-0.693-10.542-2.059c-2.988-1.367-5.518-3.26-7.53-5.668
			c-1.99-2.412-3.487-5.256-4.45-8.529c-0.971-3.283-1.462-6.834-1.462-10.65c0-3.813,0.491-7.357,1.462-10.64
			c0.963-3.276,2.46-6.123,4.45-8.535c2.013-2.407,4.542-4.316,7.53-5.719c3.015-1.403,6.52-2.105,10.542-2.105
			c4.02,0,7.535,0.702,10.537,2.105c3.023,1.403,5.528,3.312,7.531,5.719c2,2.412,3.49,5.258,4.472,8.535
			c0.967,3.283,1.45,6.828,1.45,10.64c0,3.816-0.483,7.367-1.45,10.65c-0.981,3.273-2.472,6.117-4.472,8.529
			c-2.003,2.408-4.508,4.301-7.531,5.668C328.991,82.55,325.476,83.243,321.456,83.243z M321.456,75.315
			c4.628,0,8.032-1.676,10.234-5.027c2.221-3.34,3.326-7.988,3.326-13.951c0-5.955-1.105-10.592-3.326-13.9
			c-2.202-3.313-5.606-4.969-10.234-4.969c-4.613,0-8.016,1.656-10.181,4.969c-2.181,3.308-3.261,7.945-3.261,13.9
			c0,5.963,1.08,10.611,3.261,13.951C313.44,73.64,316.843,75.315,321.456,75.315z"/>
		<path fill="#FFFFFF" d="M359.498,38.366h-8.431c-0.267-1.07-0.397-2.373-0.397-3.908c0-1.467,0.131-2.777,0.397-3.913h8.431
			v-3.622c0-6.354,1.596-11.188,4.762-14.496c3.193-3.317,7.81-4.969,13.914-4.969c1.664,0,3.129,0.085,4.416,0.255
			c1.255,0.166,2.475,0.415,3.598,0.75c-0.123,1.672-0.322,3.104-0.535,4.313c-0.257,1.206-0.549,2.443-0.958,3.716
			c-0.67-0.136-1.457-0.285-2.369-0.45c-0.892-0.166-1.977-0.254-3.253-0.254c-1.473,0-2.787,0.147-3.961,0.452
			c-1.183,0.297-2.173,0.87-3.012,1.705c-0.85,0.839-1.51,2.002-1.958,3.51c-0.473,1.505-0.716,3.432-0.716,5.777v3.314h13.164
			c0.183,1.338,0.29,2.705,0.29,4.112c0,1.27-0.107,2.505-0.29,3.709h-13.164V82.04c-0.729,0.135-1.553,0.227-2.459,0.301
			c-0.89,0.064-1.717,0.1-2.442,0.1c-0.732,0-1.579-0.035-2.519-0.1c-0.937-0.074-1.769-0.166-2.508-0.301V38.366z"/>
		<path fill="#FFFFFF" d="M393.019,38.471h-7.821l-0.402-1.411l17.246-19.26h0.819v12.745h13.042
			c0.275,1.136,0.403,2.407,0.403,3.809c0,0.738-0.036,1.443-0.097,2.106c-0.074,0.672-0.18,1.343-0.307,2.011H402.86v23.483
			c0,2.82,0.107,5.063,0.357,6.734c0.23,1.674,0.617,2.959,1.193,3.867c0.564,0.91,1.337,1.502,2.306,1.805
			c0.971,0.303,2.187,0.455,3.661,0.455c1.144,0,2.216-0.086,3.211-0.254c1.013-0.172,1.917-0.352,2.717-0.545
			c0.464,1.334,0.753,2.701,0.864,4.1c0.087,1.418,0.14,2.646,0.14,3.721c-1.339,0.338-2.748,0.584-4.216,0.752
			c-1.481,0.164-3.045,0.246-4.714,0.246c-4.828,0-8.585-1.162-11.312-3.504c-2.703-2.348-4.05-6.227-4.05-11.648V38.471z"/>
	</g>
</g>
<path fill="#FFFFFF" d="M478.938,33.144l-16.202,27.88c-1.075,1.848-3.381,2.504-5.153,1.469c-1.773-1.037-2.342-3.371-1.268-5.219
	l16.197-27.881c1.076-1.846,3.384-2.503,5.155-1.468C479.442,28.963,480.011,31.298,478.938,33.144z"/>
<g>
	<path fill="#FFFFFF" d="M485.21,14.22l17.581,30.453L485.21,75.127h-4.703h-4h-17.762h-4h-4.701l-17.583-30.454l17.583-30.453
		h4.701h4h17.762h4H485.21 M487.829,6.22h-7.322c-1.1,0-2.9,0-4,0h-17.762c-1.1,0-2.9,0-4,0h-7.32c-1.1,0-2.45,0.779-3,1.732
		l-20.201,34.989c-0.55,0.953-0.55,2.511,0,3.464l20.201,34.989c0.55,0.953,1.9,1.732,3,1.732h7.32c1.1,0,2.9,0,4,0h17.762
		c1.1,0,2.9,0,4,0h7.322c1.1,0,2.45-0.779,3-1.732l20.199-34.989c0.55-0.953,0.55-2.512,0-3.464L490.829,7.952
		C490.279,6.999,488.929,6.22,487.829,6.22L487.829,6.22z"/>
</g>
</svg>
